<?xml version="1.0" encoding="UTF-8"?>
<svg id="Layer_1" data-name="Layer 1" xmlns="http://www.w3.org/2000/svg" version="1.1" viewBox="0 0 800 800">
  <defs>
    <style>
      .cls-1 {
        fill: #000;
        stroke-width: 0px;
      }
    </style>
  </defs>
  <path class="cls-1" d="M633.3,100H166.7c-47.1,0-70.7,0-85.4,13.7-14.6,13.7-14.6,35.9-14.6,80.1v23c0,34.6,0,51.9,8.7,66.2,8.7,14.3,24.5,23.2,56.1,41l97.1,54.7c21.2,11.9,31.8,17.9,39.4,24.5,15.8,13.7,25.6,29.9,30,49.7,2.1,9.5,2.1,20.6,2.1,42.9v89c0,30.3,0,45.5,8.4,57.3,8.4,11.8,23.3,17.6,53.1,29.3,62.6,24.5,93.9,36.7,116.2,22.8,22.3-13.9,22.3-45.7,22.3-109.4v-89c0-22.2,0-33.4,2.1-42.9,4.4-19.8,14.1-35.9,30-49.7,7.6-6.6,18.2-12.6,39.4-24.5l97.1-54.7c31.6-17.8,47.4-26.7,56.1-41,8.7-14.3,8.7-31.6,8.7-66.2v-23c0-44.2,0-66.3-14.6-80.1-14.6-13.7-38.2-13.7-85.4-13.7Z"/>
</svg>