<?xml version="1.0" encoding="UTF-8"?>
<svg id="Layer_1" data-name="Layer 1" xmlns="http://www.w3.org/2000/svg" version="1.1" viewBox="0 0 800 800">
  <defs>
    <style>
      .cls-1 {
        fill: #000;
        stroke: #000;
        stroke-miterlimit: 43.8;
        stroke-width: 21.9px;
      }

      .cls-2 {
        fill: #fff;
        stroke-width: 0px;
      }
    </style>
  </defs>
  <g id="team-collaboration_version-control_github">
    <g id="container">
      <rect id="mask" class="cls-1" x="11" y="11" width="778.1" height="778.1" rx="153.4" ry="153.4"/>
      <path id="Shape" class="cls-2" d="M660.9,256.7c-26.4-45.3-62.3-81.1-107.5-107.5-45.3-26.4-94.7-39.6-148.3-39.6s-103,13.2-148.3,39.6c-45.3,26.4-81.1,62.3-107.5,107.5-26.4,45.3-39.6,94.7-39.6,148.3s18.8,122.3,56.4,173.7c37.6,51.4,86.1,87,145.6,106.8,6.9,1.3,12.1.4,15.4-2.7,3.3-3.1,5-6.9,5-11.5s0-7.7-.2-20.8c-.1-13.1-.2-24.5-.2-34.2l-8.8,1.5c-5.6,1-12.8,1.5-21.4,1.3-8.6-.1-17.5-1-26.7-2.7-9.2-1.7-17.8-5.5-25.8-11.5-7.9-6-13.6-13.9-16.9-23.7l-3.8-8.9c-2.6-5.9-6.6-12.4-12.1-19.6-5.5-7.2-11.1-12.1-16.7-14.6l-2.7-1.9c-1.8-1.3-3.5-2.8-5-4.6-1.5-1.8-2.7-3.6-3.5-5.4-.8-1.8-.1-3.3,1.9-4.4,2.1-1.2,5.8-1.7,11.2-1.7l7.7,1.1c5.1,1,11.5,4.1,19,9.2,7.6,5.1,13.8,11.8,18.7,20,5.9,10.5,13,18.5,21.4,24,8.3,5.5,16.7,8.3,25.2,8.3s15.8-.6,21.9-1.9c6.2-1.3,11.9-3.2,17.3-5.8,2.3-17.2,8.6-30.4,18.8-39.6-14.6-1.5-27.8-3.8-39.4-6.9-11.7-3.1-23.7-8.1-36.2-15-12.4-6.9-22.8-15.5-31-25.8-8.2-10.3-14.9-23.7-20.2-40.4-5.3-16.7-7.9-35.9-7.9-57.7,0-31,10.1-57.5,30.4-79.3-9.5-23.3-8.6-49.5,2.7-78.5,7.4-2.3,18.5-.6,33.1,5.2,14.6,5.8,25.3,10.7,32.1,14.8,6.8,4.1,12.2,7.6,16.4,10.4,23.9-6.7,48.5-10,73.9-10s50,3.3,73.9,10l14.6-9.2c10-6.2,21.8-11.8,35.4-16.9,13.6-5.1,24-6.5,31.2-4.2,11.5,29,12.6,55.1,3.1,78.5,20.3,21.8,30.4,48.2,30.4,79.3s-2.6,41.1-7.9,57.9c-5.3,16.8-12,30.3-20.4,40.4-8.3,10.1-18.7,18.7-31.2,25.6-12.4,6.9-24.5,11.9-36.2,15-11.7,3.1-24.8,5.4-39.4,6.9,13.3,11.5,20,29.7,20,54.6v81.2c0,4.6,1.6,8.5,4.8,11.5,3.2,3.1,8.3,4,15.2,2.7,59.5-19.7,108-55.3,145.6-106.8,37.6-51.4,56.4-109.3,56.4-173.7,0-53.6-13.2-103-39.6-148.3Z"/>
    </g>
  </g>
</svg>