<?xml version="1.0" encoding="UTF-8"?>
<svg id="Layer_1" data-name="Layer 1" xmlns="http://www.w3.org/2000/svg" viewBox="0 0 152.63 40.5">
  <defs>
    <style>
      .cls-1 {
        fill: #000;
        stroke-width: 0px;
      }

      .cls-2 {
        fill: #7dc2e7;
        stroke: #7dc2e7;
        stroke-miterlimit: 10;
        stroke-width: 3px;
      }
    </style>
  </defs>
  <path class="cls-2" d="M22.73,29.88l-10.76-6.87v-2.58l10.76-6.89v3.12l-9.23,5.43v-.74l9.23,5.41v3.12Z"/>
  <path class="cls-1" d="M37.62,30.92c-.59,0-1.18-.06-1.77-.18-.59-.12-1.12-.35-1.61-.68-.49-.33-.87-.8-1.17-1.42s-.44-1.42-.44-2.41v-10.39h-4.27v-3.02h2.25c.48,0,.86-.02,1.13-.06s.48-.13.6-.29.21-.39.24-.73c.03-.33.05-.79.05-1.37v-3.44h3.64v5.88h5.45v3.02h-5.45v9.18c0,.89.11,1.6.33,2.11.22.51.72.77,1.5.77.33,0,.65-.03.96-.08.3-.06.53-.12.69-.18v2.97c-.2.08-.49.15-.85.22s-.79.1-1.27.1Z"/>
  <path class="cls-1" d="M46.05,38.19c-.48,0-.92-.03-1.32-.08-.4-.05-.64-.1-.73-.14v-2.97c.15.07.39.12.73.17s.7.07,1.06.07c.66,0,1.23-.13,1.7-.4.48-.27.88-.64,1.21-1.12.33-.47.59-1.01.8-1.62l.45-1.34-6.13-17.95h3.79l4.58,15.08h-.47l4.46-15.08h3.74l-6.39,19.11c-.39,1.2-.87,2.26-1.44,3.21s-1.33,1.69-2.28,2.24c-.95.55-2.2.82-3.75.82Z"/>
  <path class="cls-1" d="M66.95,4.42v26.19h-3.59V4.42h3.59Z"/>
  <path class="cls-1" d="M73.1,22.99v-2.83h13.11l-.5.84v-.4c0-.91-.2-1.74-.59-2.51-.39-.77-.97-1.38-1.75-1.84-.78-.46-1.75-.7-2.91-.7s-2.18.25-3.06.75-1.56,1.2-2.04,2.11c-.49.91-.73,2-.73,3.28s.23,2.41.7,3.34c.47.93,1.15,1.65,2.03,2.15.88.5,1.94.75,3.17.75.86,0,1.61-.09,2.24-.26.63-.17,1.15-.4,1.56-.7.41-.29.72-.61.93-.95.21-.34.33-.68.37-1.01h3.62c-.07.73-.3,1.44-.71,2.15-.41.71-.98,1.35-1.73,1.93s-1.65,1.03-2.71,1.37c-1.07.34-2.29.51-3.68.51-1.85,0-3.48-.39-4.88-1.17-1.4-.78-2.49-1.87-3.27-3.26-.78-1.39-1.17-2.99-1.17-4.78s.4-3.44,1.19-4.83c.79-1.39,1.89-2.47,3.3-3.24,1.41-.78,3.02-1.17,4.84-1.17s3.46.39,4.82,1.17,2.41,1.86,3.14,3.23c.74,1.37,1.11,2.96,1.11,4.74,0,.21,0,.46-.02.74-.01.28-.03.47-.05.57h-16.32Z"/>
  <path class="cls-1" d="M93.53,30.62V12.82h3.64v5.68l-.97-.44c.08-.73.26-1.42.55-2.08.29-.66.68-1.25,1.17-1.77.49-.52,1.09-.93,1.8-1.23.71-.3,1.54-.45,2.48-.45.72,0,1.29.06,1.74.17.44.11.71.2.81.27l-.77,3.42c-.11-.08-.34-.18-.68-.3-.34-.12-.81-.18-1.42-.18-.92,0-1.68.16-2.28.49-.6.32-1.08.75-1.44,1.29-.36.54-.61,1.12-.76,1.75-.15.63-.23,1.27-.23,1.9v9.28h-3.64Z"/>
  <path class="cls-1" d="M107.27,31.07c-.62,0-1.15-.21-1.58-.64-.43-.42-.65-.95-.65-1.58s.21-1.14.65-1.57.96-.64,1.58-.64,1.12.21,1.56.64c.44.43.65.95.65,1.57s-.22,1.15-.65,1.58c-.44.42-.96.64-1.56.64Z"/>
  <path class="cls-1" d="M121.15,30.97c-1.06,0-2.06-.12-3-.35s-1.76-.58-2.47-1.03c-.71-.45-1.26-1.01-1.66-1.68-.4-.67-.59-1.45-.59-2.33v-.45h3.62v.33c0,.82.38,1.43,1.13,1.85.75.42,1.78.63,3.08.63.76,0,1.46-.08,2.09-.23s1.13-.4,1.51-.72c.37-.32.56-.74.56-1.24,0-.82-.4-1.4-1.2-1.74-.8-.35-2.01-.65-3.63-.92-.88-.16-1.73-.36-2.56-.6-.82-.25-1.56-.57-2.21-.98-.65-.41-1.17-.92-1.56-1.52-.38-.61-.58-1.34-.58-2.2,0-1.12.34-2.07,1.01-2.85.67-.78,1.58-1.37,2.71-1.78s2.4-.6,3.77-.6,2.56.22,3.7.65c1.13.43,2.05,1.05,2.74,1.86.69.81,1.04,1.8,1.04,2.97v.3h-3.6v-.23c0-.58-.18-1.06-.55-1.42-.37-.37-.85-.65-1.43-.83-.59-.18-1.21-.28-1.87-.28-.6,0-1.21.06-1.82.19-.61.13-1.11.35-1.52.65s-.6.72-.6,1.25.2.96.59,1.28c.39.32.94.58,1.66.79.72.21,1.55.39,2.5.56.87.16,1.72.35,2.55.59s1.57.56,2.24.95c.67.39,1.2.89,1.59,1.51.4.61.59,1.37.59,2.26s-.21,1.73-.64,2.4c-.42.67-1,1.23-1.74,1.67-.73.44-1.56.77-2.5.99-.93.22-1.91.33-2.94.33Z"/>
  <path class="cls-2" d="M135.48,13.54l10.76,6.89v2.58l-10.76,6.87v-3.12l9.23-5.41v.74l-9.23-5.43v-3.12Z"/>
</svg>