<svg id="Layer_1" data-name="Layer 1" xmlns="http://www.w3.org/2000/svg" viewBox="0 0 401.54 351.72"><defs><style>.cls-1{fill:#231f20;stroke-width:0}</style></defs><path d="M165.44 19.87c-3.06 1.76-6.07 3.65-9.01 5.71-96.66.84-87.69 48.95-93.43 66.9s-23.53 21.78-31.64 30.45c-5.84 6.49-10.85 13.84-14.89 21.86-8.54 16.62-13.89 35.07-15.7 54.19C-2.9 236 6.32 277.09 33.7 301.14c20.58 18.09 50 17.75 74.51 11.54 14.06-3.55 27.4-9.87 41.27-14.25 24.26-7.63 49.78-9.26 74.76-4.77 16.48 2.96 32.53 8.61 49.03 11.78 11.86 2.29 24.13 3.31 36.03 1.06 11.42-2.16 20.01-8.66 30.25-14.05 19.5-10.28 39.12-23.16 50.91-43.93 9.07-16.27 12.73-35.61 10.38-54.69-2.5-19.04-10.31-36.78-22.33-50.69-5.33-6.26-12.19-11.67-15.02-19.81-2.82-8.13-3.64-17.73-4.77-26.14-2.49-18.45-5.33-37.42-14.14-53.35-9.79-17.7-26.31-29.96-44.03-36.49C282.83.81 263.92-.45 245.33.12c-27.54.9-55.62 5.82-79.9 19.77l.02-.02z" style="fill:#7cd2ee;stroke-width:0"/><path class="cls-1" d="M210.32 111.7h-43.33l-32.03 159.16H76.83l32.03-159.16H66.07l4.84-21.64h143.98l-4.57 21.64zM300.48 142.45c.54-2.85.81-6.74.81-11.67 0-2.85-.18-5.65-.54-8.4-.36-2.75-.99-5.22-1.88-7.4-.9-2.18-2.25-3.89-4.04-5.12-1.8-1.23-4.13-1.85-7-1.85-3.23 0-6.19.76-8.88 2.28a26.99 26.99 0 0 0-7.13 5.84c-2.06 2.38-3.68 5.12-4.84 8.26-1.17 3.13-1.75 6.41-1.75 9.82 0 4.94 1.21 8.73 3.63 11.39s5.6 4.84 9.55 6.55c3.94 1.71 8.43 3.13 13.46 4.27 5.02 1.14 10.23 2.47 15.61 3.99 4.48 1.33 8.97 3.04 13.46 5.12 4.48 2.09 8.48 4.89 11.98 8.4 3.5 3.51 6.33 8.07 8.48 13.67 2.15 5.6 3.23 12.58 3.23 20.93 0 11.96-2.25 22.02-6.73 30.18-4.49 8.16-10.68 14.81-18.57 19.93-7.9 5.12-17.27 8.83-28.12 11.1-10.86 2.28-22.65 3.42-35.39 3.42s-23.46-.9-31.62-2.7c-8.17-1.8-14.58-3.75-19.24-5.84-5.56-2.46-9.69-5.31-12.38-8.54l9.15-39.01h47.37c-.18 1.71-.36 4.04-.54 6.98-.18 2.95-.27 5.27-.27 6.98 0 2.28.27 4.65.81 7.12.54 2.47 1.39 4.75 2.56 6.83 1.16 2.09 2.83 3.8 4.98 5.12 2.15 1.33 4.84 1.99 8.07 1.99 3.59 0 6.77-.85 9.55-2.56 2.78-1.71 5.11-3.84 7-6.41s3.32-5.41 4.31-8.54c.98-3.13 1.48-6.21 1.48-9.25 0-4.17-.94-7.69-2.83-10.53-1.88-2.85-4.44-5.27-7.67-7.26s-6.96-3.7-11.17-5.12c-4.22-1.42-8.57-2.89-13.05-4.41-4.31-1.33-8.84-2.94-13.59-4.84-4.76-1.89-9.11-4.56-13.05-7.97-3.95-3.42-7.22-7.73-9.82-12.96-2.6-5.22-3.9-11.91-3.9-20.07 0-12.15 2.91-22.35 8.75-30.61 5.83-8.26 13.19-14.95 22.07-20.07 8.88-5.12 18.61-8.78 29.2-10.96 10.58-2.18 20.63-3.27 30.14-3.27 12.56 0 23.37 1.57 32.43 4.7 9.06 3.13 15.92 6.79 20.59 10.96l-9.96 39.58h-44.67z"/></svg>